<svg xmlns="http://www.w3.org/2000/svg" width="1500" height="150" viewBox="0 0 1500 150" font-family="Manrope, system-ui, -apple-system, Segoe UI, sans-serif">
<title>Wariant 4 - Grafit techniczny (chłodne neutrale, jeden ciepły akcent)</title>
<rect width="1500" height="150" fill="#F7F8FA"/>
<rect x="0" y="0" width="100" height="150" fill="#22272E"/>
<rect x="0" y="0" width="100" height="150" fill="none" stroke="#D0D5DB" stroke-width="1"/>
<text x="8" y="120" font-size="10" font-weight="700" fill="#FFFFFF">primary</text>
<text x="8" y="136" font-size="10" font-family="Inconsolata, ui-monospace, monospace" fill="#FFFFFF">#22272E</text>
<rect x="100" y="0" width="100" height="150" fill="#4A5563"/>
<rect x="100" y="0" width="100" height="150" fill="none" stroke="#D0D5DB" stroke-width="1"/>
<text x="108" y="120" font-size="10" font-weight="700" fill="#FFFFFF">secondary</text>
<text x="108" y="136" font-size="10" font-family="Inconsolata, ui-monospace, monospace" fill="#FFFFFF">#4A5563</text>
<rect x="200" y="0" width="100" height="150" fill="#B84A0B"/>
<rect x="200" y="0" width="100" height="150" fill="none" stroke="#D0D5DB" stroke-width="1"/>
<text x="208" y="120" font-size="10" font-weight="700" fill="#FFFFFF">accent</text>
<text x="208" y="136" font-size="10" font-family="Inconsolata, ui-monospace, monospace" fill="#FFFFFF">#B84A0B</text>
<rect x="300" y="0" width="100" height="150" fill="#15181C"/>
<rect x="300" y="0" width="100" height="150" fill="none" stroke="#D0D5DB" stroke-width="1"/>
<text x="308" y="120" font-size="10" font-weight="700" fill="#FFFFFF">neutral-dark</text>
<text x="308" y="136" font-size="10" font-family="Inconsolata, ui-monospace, monospace" fill="#FFFFFF">#15181C</text>
<rect x="400" y="0" width="100" height="150" fill="#E6E8EB"/>
<rect x="400" y="0" width="100" height="150" fill="none" stroke="#D0D5DB" stroke-width="1"/>
<text x="408" y="120" font-size="10" font-weight="700" fill="#111111">neutral-light</text>
<text x="408" y="136" font-size="10" font-family="Inconsolata, ui-monospace, monospace" fill="#111111">#E6E8EB</text>
<rect x="500" y="0" width="100" height="150" fill="#1E7B4B"/>
<rect x="500" y="0" width="100" height="150" fill="none" stroke="#D0D5DB" stroke-width="1"/>
<text x="508" y="120" font-size="10" font-weight="700" fill="#FFFFFF">success</text>
<text x="508" y="136" font-size="10" font-family="Inconsolata, ui-monospace, monospace" fill="#FFFFFF">#1E7B4B</text>
<rect x="600" y="0" width="100" height="150" fill="#B7791F"/>
<rect x="600" y="0" width="100" height="150" fill="none" stroke="#D0D5DB" stroke-width="1"/>
<text x="608" y="120" font-size="10" font-weight="700" fill="#111111">warning</text>
<text x="608" y="136" font-size="10" font-family="Inconsolata, ui-monospace, monospace" fill="#111111">#B7791F</text>
<rect x="700" y="0" width="100" height="150" fill="#B42318"/>
<rect x="700" y="0" width="100" height="150" fill="none" stroke="#D0D5DB" stroke-width="1"/>
<text x="708" y="120" font-size="10" font-weight="700" fill="#FFFFFF">error</text>
<text x="708" y="136" font-size="10" font-family="Inconsolata, ui-monospace, monospace" fill="#FFFFFF">#B42318</text>
<rect x="800" y="0" width="100" height="150" fill="#175CD3"/>
<rect x="800" y="0" width="100" height="150" fill="none" stroke="#D0D5DB" stroke-width="1"/>
<text x="808" y="120" font-size="10" font-weight="700" fill="#FFFFFF">info</text>
<text x="808" y="136" font-size="10" font-family="Inconsolata, ui-monospace, monospace" fill="#FFFFFF">#175CD3</text>
<rect x="900" y="0" width="100" height="150" fill="#F7F8FA"/>
<rect x="900" y="0" width="100" height="150" fill="none" stroke="#D0D5DB" stroke-width="1"/>
<text x="908" y="120" font-size="10" font-weight="700" fill="#111111">background</text>
<text x="908" y="136" font-size="10" font-family="Inconsolata, ui-monospace, monospace" fill="#111111">#F7F8FA</text>
<rect x="1000" y="0" width="100" height="150" fill="#FFFFFF"/>
<rect x="1000" y="0" width="100" height="150" fill="none" stroke="#D0D5DB" stroke-width="1"/>
<text x="1008" y="120" font-size="10" font-weight="700" fill="#111111">surface</text>
<text x="1008" y="136" font-size="10" font-family="Inconsolata, ui-monospace, monospace" fill="#111111">#FFFFFF</text>
<rect x="1100" y="0" width="100" height="150" fill="#D0D5DB"/>
<rect x="1100" y="0" width="100" height="150" fill="none" stroke="#D0D5DB" stroke-width="1"/>
<text x="1108" y="120" font-size="10" font-weight="700" fill="#111111">border</text>
<text x="1108" y="136" font-size="10" font-family="Inconsolata, ui-monospace, monospace" fill="#111111">#D0D5DB</text>
<rect x="1200" y="0" width="100" height="150" fill="#15181C"/>
<rect x="1200" y="0" width="100" height="150" fill="none" stroke="#D0D5DB" stroke-width="1"/>
<text x="1208" y="120" font-size="10" font-weight="700" fill="#FFFFFF">text-primary</text>
<text x="1208" y="136" font-size="10" font-family="Inconsolata, ui-monospace, monospace" fill="#FFFFFF">#15181C</text>
<rect x="1300" y="0" width="100" height="150" fill="#4B5563"/>
<rect x="1300" y="0" width="100" height="150" fill="none" stroke="#D0D5DB" stroke-width="1"/>
<text x="1308" y="120" font-size="10" font-weight="700" fill="#FFFFFF">text-secondary</text>
<text x="1308" y="136" font-size="10" font-family="Inconsolata, ui-monospace, monospace" fill="#FFFFFF">#4B5563</text>
<rect x="1400" y="0" width="100" height="150" fill="#175CD3"/>
<rect x="1400" y="0" width="100" height="150" fill="none" stroke="#D0D5DB" stroke-width="1"/>
<text x="1408" y="120" font-size="10" font-weight="700" fill="#FFFFFF">link</text>
<text x="1408" y="136" font-size="10" font-family="Inconsolata, ui-monospace, monospace" fill="#FFFFFF">#175CD3</text>
</svg>